<?xml version="1.0" standalone="no"?><!DOCTYPE svg PUBLIC "-//W3C//DTD SVG 1.1//EN" "http://www.w3.org/Graphics/SVG/1.1/DTD/svg11.dtd"><svg t="1742920440896" class="icon" viewBox="0 0 1024 1024" version="1.1" xmlns="http://www.w3.org/2000/svg" p-id="1563" xmlns:xlink="http://www.w3.org/1999/xlink" width="200" height="200"><path d="M518.559767 990.705821a481.102936 481.102936 0 0 0 66.717634-5.439807C709.113009 877.10985 789.110171 705.435939 789.110171 512.0028s-79.997163-365.10705-203.83277-473.263214a481.102936 481.102936 0 0 0-66.717634-5.439807c141.914966 95.996595 237.431579 274.550262 237.431579 478.703021s-95.516612 382.546432-237.431579 478.703021zM498.400482 990.705821a483.182862 483.182862 0 0 1-66.397645-5.439807C307.847241 877.10985 227.850078 705.435939 227.850078 512.0028S307.847241 146.89575 432.002837 38.739586a483.182862 483.182862 0 0 1 66.717634-5.439807C356.485516 129.456368 260.968904 307.850041 260.968904 512.0028s95.516612 382.546432 237.431578 478.703021z" p-id="1564" fill="#bfbfbf"></path><path d="M512 805.272398a509.421931 509.421931 0 0 0-287.989785 88.956845c9.439665 7.199745 19.359313 13.919506 29.278961 20.479273a478.223038 478.223038 0 0 1 518.381614 0c9.919648-6.559767 19.839296-13.279529 29.278961-20.479273A509.421931 509.421931 0 0 0 512 805.272398zM512 218.573207A509.421931 509.421931 0 0 1 224.010215 129.616363c9.439665-7.199745 19.359313-13.919506 29.278961-20.31928A476.783089 476.783089 0 0 0 512 185.454382a476.783089 476.783089 0 0 0 259.190807-76.157299c9.919648 6.399773 19.839296 13.119535 29.278961 20.31928A509.421931 509.421931 0 0 1 512 218.573207zM6.737921 495.36339h984.125094v33.118825H6.737921z" p-id="1565" fill="#bfbfbf"></path><path d="M970.863725 285.130847a14.559484 14.559484 0 0 0-1.119961-2.239921v-0.799971l-1.279954-1.599944a15.999433 15.999433 0 0 0-26.879047 18.879331A478.863015 478.863015 0 0 1 512 990.865815c-175.993758 0-335.988083-104.956277-418.865143-246.871244a15.999433 15.999433 0 0 0-15.999433-11.039608 15.999433 15.999433 0 0 0-15.999432 15.999433 17.599376 17.599376 0 0 0 1.599943 7.199744A504.142119 504.142119 0 0 0 512 1023.984641a511.981841 511.981841 0 0 0 458.863725-738.853794zM63.055923 678.876881H64.015889A447.984111 447.984111 0 0 1 33.136985 512.0028 478.703021 478.703021 0 0 1 879.986948 205.933656a15.999433 15.999433 0 0 0 26.239069-20.159285v-1.919932A504.782096 504.782096 0 0 0 512 0.020959 511.981841 511.981841 0 0 0 0.018159 512.0028a555.98028 555.98028 0 0 0 31.998865 177.91369 16.799404 16.799404 0 0 0 33.118826-3.839864 15.999433 15.999433 0 0 0-2.079927-7.199745z" p-id="1566" fill="#bfbfbf"></path><path d="M927.985246 240.332436m-16.63941 0a16.63941 16.63941 0 1 0 33.278819 0 16.63941 16.63941 0 1 0-33.278819 0Z" p-id="1567" fill="#bfbfbf"></path><path d="M489.120811 11.220562h35.678735v993.56476h-35.678735z" p-id="1568" fill="#bfbfbf"></path></svg>